<?xml version="1.0" encoding="UTF-8"?>
<svg width="149px" height="38px" viewBox="0 0 149 38" version="1.1" xmlns="http://www.w3.org/2000/svg" xmlns:xlink="http://www.w3.org/1999/xlink">
    <title>9D2EF4EB-8569-402D-8C97-21FCF69356E5</title>
    <g id="🖥---WEB---L2---Группа" stroke="none" stroke-width="1" fill="none" fill-rule="evenodd">
        <g id="GROUP-(web-1280)---Default---Scroll-1" transform="translate(-567.000000, -84.000000)" fill="#0096BB">
            <g id="NAV-/-L1-/-Main-/-Web">
                <g id="LOGO/FL/Full" transform="translate(567.000000, 84.054645)">
                    <g id="fluid_line_logo">
                        <path d="M37.6105611,0 L37.6105611,35.7227723 L0,35.7227723 L0,0 L37.6105611,0 Z M36.1452145,1.39179632 L1.46534653,1.39179632 L1.46534653,34.330976 L36.1452145,34.330976 L36.1452145,1.39179632 Z M7.63661232,16.948801 L7.63661232,32.4752475 L3.41914191,32.4752475 L3.41914191,16.948801 L7.63661232,16.948801 Z M21.3029284,5.45457771 L21.3029284,26.1100083 C21.3029284,28.6585181 22.6121113,30.9206251 24.6239654,32.3229957 L24.8503656,32.4752475 L12.6982655,32.4752475 L12.6982655,16.9483329 L17.7358133,16.9483329 L17.7358133,12.7592959 L12.6982655,12.7592959 L12.6982655,8.44153104 C12.6982655,6.85108481 14.0401453,5.54733688 15.7249671,5.45931436 L15.9067505,5.45457771 L21.3029284,5.45457771 Z M33.7029703,2.78359264 L33.7029703,29.0974297 L29.4008848,29.0974297 C27.7861006,29.0974297 26.4617884,27.8512735 26.3692544,26.2852771 L26.3640897,26.1100083 L26.3640897,2.78359264 L33.7029703,2.78359264 Z M94.0095023,7.42300674 L94.0095023,28.4428766 L90.0999578,28.4428766 L89.9314429,27.3833952 C89.0551657,28.3466024 87.8755617,28.7637907 86.460037,28.7637907 C83.8649083,28.7637907 82.2471657,26.7741236 82.2471657,22.8264158 L82.2471657,17.6601647 C82.2471657,13.7771048 83.8649083,11.7553463 86.6959578,11.7553463 C87.7744528,11.7553463 88.718136,12.044169 89.5270073,12.6859971 L89.5270073,7.42300674 L94.0095023,7.42300674 Z M65.867864,11.9798001 L65.867864,22.8587862 C65.867864,24.4954478 66.3060026,25.0730931 67.1485769,25.0730931 C67.8563393,25.0730931 68.3281809,24.7200877 68.6315076,24.270808 L68.6315076,11.9798001 L73.1477056,11.9798001 L73.1477056,28.4426906 L69.2381611,28.4426906 L69.0696462,27.3836742 C68.159666,28.3464164 66.980062,28.7636046 65.5645373,28.7636046 C62.9694086,28.7636046 61.351666,26.7739376 61.351666,22.8266948 L61.351666,11.9798001 L65.867864,11.9798001 Z M142.439059,11.6593512 C146.113171,11.6593512 147.93362,14.2908463 147.93362,17.4995217 L147.93362,21.093759 L141.22624,21.093759 L141.22624,22.8908776 C141.22624,24.5596307 141.731785,25.2014587 142.877686,25.2014587 C143.787666,25.2014587 144.259508,24.6559049 144.663943,23.1797003 L148.000537,24.2066252 C147.292775,27.2232172 145.573923,28.7315132 142.37263,28.7315132 C138.698517,28.7315132 136.710042,26.2283837 136.710042,23.0513346 L136.710042,17.3390647 C136.710042,14.2908463 138.563706,11.6593512 142.439059,11.6593512 Z M130.711402,11.6593512 C133.40764,11.6593512 134.991191,13.6164618 134.991191,17.6278873 L134.991191,28.4426906 L130.474993,28.4426906 L130.474993,17.6920701 C130.474993,15.9595994 130.037343,15.4456718 129.194768,15.4456718 C128.52022,15.4456718 128.049356,15.7344944 127.711838,16.248422 L127.711838,28.4426906 L123.229343,28.4426906 L123.229343,11.9798001 L127.138887,11.9798001 L127.273699,13.071373 C128.183679,12.1081657 129.32958,11.6593512 130.711402,11.6593512 Z M120.701571,12.5896763 L120.701571,28.4428301 L116.219076,28.4428301 L116.219076,12.5896763 L120.701571,12.5896763 Z M109.073997,7.42291372 L109.073997,24.2388096 L114.466961,24.2388096 L114.466961,28.4427836 L104.45669,28.4427836 L104.45669,7.42291372 L109.073997,7.42291372 Z M80.1236832,12.5896763 L80.1236832,28.4428301 L75.6411881,28.4428301 L75.6411881,12.5896763 L80.1236832,12.5896763 Z M58.9928977,7.42296023 L58.9928977,28.4428301 L54.5104026,28.4428301 L54.5104026,7.42296023 L58.9928977,7.42296023 Z M52.5556304,7.42291372 L52.5556304,11.5627049 L46.7587195,11.5627049 L46.7587195,16.1196843 L51.7467591,16.1196843 L51.7467591,19.9706528 L46.7587195,19.9706528 L46.7587195,28.4427836 L42.0066007,28.4427836 L42.0066007,7.42291372 L52.5556304,7.42291372 Z M88.1114825,15.4779492 C87.2352053,15.4779492 86.7633637,15.9593203 86.7633637,17.7880653 L86.7633637,22.8589723 C86.7633637,24.4951688 87.1677993,25.0732792 88.0440766,25.0732792 C88.7518389,25.0732792 89.2236805,24.7523651 89.5270073,24.3351769 L89.5270073,16.2160515 C89.1899776,15.7025891 88.7518389,15.4779492 88.1114825,15.4779492 Z M102.367644,17.0182901 L102.367644,20.9655329 L96.0314851,20.9655329 L96.0314851,17.0182901 L102.367644,17.0182901 Z M142.574848,15.1252229 C141.630676,15.1252229 141.22624,15.6065939 141.22624,17.1144248 L141.22624,18.3659896 L143.888775,18.3659896 L143.888775,17.0827985 C143.888775,15.5740374 143.450636,15.1252229 142.574848,15.1252229 Z M10.3167452,2.78359264 C8.74554872,4.13042137 7.72842526,6.02973331 7.64294987,8.15093234 L7.63710427,8.44153104 L7.63710427,12.7592959 L3.41914191,12.7592959 L3.41914191,2.78359264 L10.3167452,2.78359264 Z M120.398244,7.42296023 L120.398244,10.9851061 L116.4887,10.9851061 L116.4887,7.42296023 L120.398244,7.42296023 Z M79.8203564,7.42296023 L79.8203564,10.9851061 L75.9108119,10.9851061 L75.9108119,7.42296023 L79.8203564,7.42296023 Z"></path>
                    </g>
                </g>
            </g>
        </g>
    </g>
</svg>